<?xml version="1.0" encoding="utf-8"?>
<!-- Generator: Adobe Illustrator 25.0.0, SVG Export Plug-In . SVG Version: 6.00 Build 0)  -->
<svg version="1.1" id="Layer_1" xmlns="http://www.w3.org/2000/svg" xmlns:xlink="http://www.w3.org/1999/xlink" x="0px" y="0px"
	 viewBox="0 0 400 215" style="enable-background:new 0 0 400 215;" xml:space="preserve">
<style type="text/css">
	.st0{fill:#FFFFFF;}
</style>
<g>
	<path class="st0" d="M151.2,194.58h-12.17V128.1c0-21.77-9.83-31.13-25.98-31.13c-20.13,0-29.26,20.6-29.26,20.6v77.01H71.61V87.84
		h11v18.02c0,0,9.36-20.83,33.24-20.83c13.11,0,25.98,5.85,32.3,20.83c0.7-1.4,10.53-20.83,34.18-20.83
		c16.39,0,35.35,9.36,35.35,39.33v70.23h-12.17V128.1c0-21.77-9.83-31.13-25.98-31.13c-20.13,0-28.32,20.6-28.32,20.6V194.58z"/>
	<path class="st0" d="M227.04,194.58V17.61h11.94v87.08c2.81-4.21,14.28-19.66,38.62-19.66c29.73,0,53.14,22.94,53.14,56.18
		c0,33.24-23.41,56.18-53.14,56.18c-28.09,0-39.56-20.83-39.56-20.83v18.02H227.04z M239.21,162.74c0,0,10.77,22.71,38.39,22.71
		c23.88,0,40.5-19.43,40.5-44.24s-16.62-44.24-40.5-44.24c-27.62,0-38.39,22.71-38.39,22.71V162.74z"/>
	<path class="st0" d="M335.88,178.66c5.15,0,9.36,4.21,9.36,9.36c0,5.15-4.21,9.36-9.36,9.36c-5.15,0-9.36-4.21-9.36-9.36
		C326.52,182.88,330.73,178.66,335.88,178.66z"/>
</g>
</svg>
